<?xml version="1.0" encoding="UTF-8" standalone="no"?>
<svg width="1209px" height="1210px" viewBox="0 0 1209 1210" version="1.1" xmlns="http://www.w3.org/2000/svg" xmlns:xlink="http://www.w3.org/1999/xlink">
    <!-- Generator: Sketch 3.8.3 (29802) - http://www.bohemiancoding.com/sketch -->
    <title>data-federation-logo-v1b</title>
    <desc>Created with Sketch.</desc>
    <defs></defs>
    <g id="Page-1" stroke="none" stroke-width="1" fill="none" fill-rule="evenodd">
        <circle id="Oval-79" stroke="#113969" stroke-width="40" fill="#F1F1F1" cx="604.486328" cy="602.486328" r="315.486328"></circle>
        <g id="Radial-Lines" opacity="0.104302705" transform="translate(3.000000, 4.000000)" stroke-linecap="square" stroke="#4A4A4A" stroke-width="2">
            <g id="Group-9" transform="translate(61.649783, 61.649783)">
                <g id="Group-6" transform="translate(539.708394, 539.981910) rotate(-270.000000) translate(-539.708394, -539.981910) translate(539.208394, 261.481910)">
                    <path d="M-1.13686838e-13,0.434153401 L-1.13686838e-13,263.773153" id="Line"></path>
                    <path d="M-1.13686838e-13,556.150507 L-1.13686838e-13,292.811507" id="Line"></path>
                </g>
                <g id="Group-8" transform="translate(145.145423, 145.138929)">
                    <g id="Group-6" transform="translate(394.342981, 116.484805)">
                        <path d="M1.13686838e-13,0.434153401 L1.13686838e-13,263.773153" id="Line"></path>
                        <path d="M1.13686838e-13,556.150507 L1.13686838e-13,292.811507" id="Line"></path>
                    </g>
                    <g id="Group-7" transform="translate(394.717271, 395.130688) rotate(-45.000000) translate(-394.717271, -395.130688) translate(115.717271, 116.630688)">
                        <g id="Group-6" transform="translate(278.858177, -0.000000)">
                            <path d="M0,0.434153401 L0,263.773153" id="Line"></path>
                            <path d="M-1.70530257e-13,556.150507 L-1.70530257e-13,292.811507" id="Line"></path>
                        </g>
                        <g id="Group-6" transform="translate(279.084660, 278.358177) rotate(-270.000000) translate(-279.084660, -278.358177) translate(278.584660, -0.141823)">
                            <path d="M-2.27373675e-13,0.434153401 L-2.27373675e-13,263.773153" id="Line"></path>
                            <path d="M5.68434189e-14,556.150507 L5.68434189e-14,292.811507" id="Line"></path>
                        </g>
                    </g>
                </g>
                <g id="offset-1" transform="translate(539.564625, 539.964009) rotate(-330.000000) translate(-539.564625, -539.964009) translate(145.064625, 144.964009)">
                    <g id="Group-6" transform="translate(394.342981, 116.484805)">
                        <path d="M-2.84217094e-13,0.434153401 L-2.84217094e-13,263.773153" id="Line"></path>
                        <path d="M-1.70530257e-13,556.150507 L-1.70530257e-13,292.811507" id="Line"></path>
                    </g>
                    <g id="Group-7" transform="translate(115.484805, 116.484805)">
                        <g id="Group-6" transform="translate(278.858177, 0.000000)">
                            <path d="M-3.41060513e-13,0.434153401 L-3.41060513e-13,263.773153" id="Line"></path>
                            <path d="M0,556.150507 L0,292.811507" id="Line"></path>
                        </g>
                        <g id="Group-6" transform="translate(279.084660, 278.358177) rotate(-270.000000) translate(-279.084660, -278.358177) translate(278.584660, -0.141823)">
                            <path d="M-1.13686838e-13,0.434153401 L-1.13686838e-13,263.773153" id="Line"></path>
                            <path d="M1.70530257e-13,556.150507 L1.70530257e-13,292.811507" id="Line"></path>
                        </g>
                    </g>
                    <g id="Group-7" transform="translate(394.717271, 395.130688) rotate(-45.000000) translate(-394.717271, -395.130688) translate(115.717271, 116.630688)">
                        <g id="Group-6" transform="translate(278.858177, -0.000000)">
                            <path d="M-3.97903932e-13,0.434153401 L-3.97903932e-13,263.773153" id="Line"></path>
                            <path d="M-5.1159077e-13,556.150507 L-5.1159077e-13,292.811507" id="Line"></path>
                        </g>
                        <g id="Group-6" transform="translate(279.084660, 278.358177) rotate(-270.000000) translate(-279.084660, -278.358177) translate(278.584660, -0.141823)">
                            <path d="M-2.27373675e-13,0.434153401 L-2.27373675e-13,263.773153" id="Line"></path>
                            <path d="M5.68434189e-14,556.150507 L5.68434189e-14,292.811507" id="Line"></path>
                        </g>
                    </g>
                </g>
                <g id="offset-1" transform="translate(539.584489, 539.780996) rotate(-300.000000) translate(-539.584489, -539.780996) translate(145.084489, 144.780996)">
                    <g id="Group-6" transform="translate(394.342981, 116.484805)">
                        <path d="M2.27373675e-13,0.434153401 L2.27373675e-13,263.773153" id="Line"></path>
                        <path d="M3.41060513e-13,556.150507 L3.41060513e-13,292.811507" id="Line"></path>
                    </g>
                    <g id="Group-7" transform="translate(115.484805, 116.484805)">
                        <g id="Group-6" transform="translate(278.858177, -0.000000)">
                            <path d="M0,0.434153401 L0,263.773153" id="Line"></path>
                            <path d="M0,556.150507 L0,292.811507" id="Line"></path>
                        </g>
                        <g id="Group-6" transform="translate(279.084660, 278.358177) rotate(-270.000000) translate(-279.084660, -278.358177) translate(278.584660, -0.141823)">
                            <path d="M2.84217094e-13,0.434153401 L2.84217094e-13,263.773153" id="Line"></path>
                            <path d="M3.41060513e-13,556.150507 L3.41060513e-13,292.811507" id="Line"></path>
                        </g>
                    </g>
                    <g id="Group-7" transform="translate(394.717271, 395.130688) rotate(-45.000000) translate(-394.717271, -395.130688) translate(115.717271, 116.630688)">
                        <g id="Group-6" transform="translate(278.858177, -0.000000)">
                            <path d="M-2.27373675e-13,0.434153401 L-2.27373675e-13,263.773153" id="Line"></path>
                            <path d="M0,556.150507 L0,292.811507" id="Line"></path>
                        </g>
                        <g id="Group-6" transform="translate(279.084660, 278.358177) rotate(-270.000000) translate(-279.084660, -278.358177) translate(278.584660, -0.141823)">
                            <path d="M1.70530257e-13,0.434153401 L1.70530257e-13,263.773153" id="Line"></path>
                            <path d="M3.41060513e-13,556.150507 L3.41060513e-13,292.811507" id="Line"></path>
                        </g>
                    </g>
                </g>
            </g>
            <g id="Group-9" transform="translate(601.306595, 601.762392) rotate(7.000000) translate(-601.306595, -601.762392) translate(61.806595, 61.762392)">
                <g id="Group-6" transform="translate(539.708394, 539.981910) rotate(-270.000000) translate(-539.708394, -539.981910) translate(539.208394, 261.481910)">
                    <path d="M5.68434189e-13,0.434153401 L5.68434189e-13,263.773153" id="Line"></path>
                    <path d="M5.68434189e-13,556.150507 L5.68434189e-13,292.811507" id="Line"></path>
                </g>
                <g id="Group-8" transform="translate(145.145423, 145.138929)">
                    <g id="Group-6" transform="translate(394.342981, 116.484805)">
                        <path d="M0,0.434153401 L0,263.773153" id="Line"></path>
                        <path d="M0,556.150507 L0,292.811507" id="Line"></path>
                    </g>
                    <g id="Group-7" transform="translate(115.484805, 116.484805)">
                        <g id="Group-6" transform="translate(278.858177, 0.000000)">
                            <path d="M0,0.434153401 L0,263.773153" id="Line"></path>
                            <path d="M0,556.150507 L0,292.811507" id="Line"></path>
                        </g>
                        <g id="Group-6" transform="translate(279.084660, 278.358177) rotate(-270.000000) translate(-279.084660, -278.358177) translate(278.584660, -0.141823)">
                            <path d="M7.38964445e-13,0.434153401 L7.38964445e-13,263.773153" id="Line"></path>
                            <path d="M3.41060513e-13,556.150507 L3.41060513e-13,292.811507" id="Line"></path>
                        </g>
                    </g>
                    <g id="Group-7" transform="translate(394.717271, 395.130688) rotate(-45.000000) translate(-394.717271, -395.130688) translate(115.717271, 116.630688)">
                        <g id="Group-6" transform="translate(278.858177, 0.000000)">
                            <path d="M-1.13686838e-13,0.434153401 L-1.13686838e-13,263.773153" id="Line"></path>
                            <path d="M1.70530257e-13,556.150507 L1.70530257e-13,292.811507" id="Line"></path>
                        </g>
                        <g id="Group-6" transform="translate(279.084660, 278.358177) rotate(-270.000000) translate(-279.084660, -278.358177) translate(278.584660, -0.141823)">
                            <path d="M2.27373675e-13,0.434153401 L2.27373675e-13,263.773153" id="Line"></path>
                            <path d="M6.25277607e-13,556.150507 L6.25277607e-13,292.811507" id="Line"></path>
                        </g>
                    </g>
                </g>
                <g id="offset-1" transform="translate(539.564625, 539.964009) rotate(-330.000000) translate(-539.564625, -539.964009) translate(145.064625, 144.964009)">
                    <g id="Group-6" transform="translate(394.342981, 116.484805)">
                        <path d="M2.84217094e-13,0.434153401 L2.84217094e-13,263.773153" id="Line"></path>
                        <path d="M2.84217094e-13,556.150507 L2.84217094e-13,292.811507" id="Line"></path>
                    </g>
                    <g id="Group-7" transform="translate(115.484805, 116.484805)">
                        <g id="Group-6" transform="translate(278.858177, 0.000000)">
                            <path d="M2.27373675e-13,0.434153401 L2.27373675e-13,263.773153" id="Line"></path>
                            <path d="M2.27373675e-13,556.150507 L2.27373675e-13,292.811507" id="Line"></path>
                        </g>
                        <g id="Group-6" transform="translate(279.084660, 278.358177) rotate(-270.000000) translate(-279.084660, -278.358177) translate(278.584660, -0.141823)">
                            <path d="M-2.27373675e-13,0.434153401 L-2.27373675e-13,263.773153" id="Line"></path>
                            <path d="M-3.97903932e-13,556.150507 L-3.97903932e-13,292.811507" id="Line"></path>
                        </g>
                    </g>
                    <g id="Group-7" transform="translate(394.717271, 395.130688) rotate(-45.000000) translate(-394.717271, -395.130688) translate(115.717271, 116.630688)">
                        <g id="Group-6" transform="translate(278.858177, -0.000000)">
                            <path d="M-1.13686838e-13,0.434153401 L-1.13686838e-13,263.773153" id="Line"></path>
                            <path d="M-3.97903932e-13,556.150507 L-3.97903932e-13,292.811507" id="Line"></path>
                        </g>
                        <g id="Group-6" transform="translate(279.084660, 278.358177) rotate(-270.000000) translate(-279.084660, -278.358177) translate(278.584660, -0.141823)">
                            <path d="M-1.13686838e-13,0.434153401 L-1.13686838e-13,263.773153" id="Line"></path>
                            <path d="M-2.84217094e-13,556.150507 L-2.84217094e-13,292.811507" id="Line"></path>
                        </g>
                    </g>
                </g>
                <g id="offset-1" transform="translate(539.584489, 539.780996) rotate(-300.000000) translate(-539.584489, -539.780996) translate(145.084489, 144.780996)">
                    <g id="Group-6" transform="translate(394.342981, 116.484805)">
                        <path d="M5.68434189e-13,0.434153401 L5.68434189e-13,263.773153" id="Line"></path>
                        <path d="M5.68434189e-13,556.150507 L5.68434189e-13,292.811507" id="Line"></path>
                    </g>
                    <g id="Group-7" transform="translate(115.484805, 116.484805)">
                        <g id="Group-6" transform="translate(278.858177, -0.000000)">
                            <path d="M4.54747351e-13,0.434153401 L4.54747351e-13,263.773153" id="Line"></path>
                            <path d="M4.54747351e-13,556.150507 L4.54747351e-13,292.811507" id="Line"></path>
                        </g>
                        <g id="Group-6" transform="translate(279.084660, 278.358177) rotate(-270.000000) translate(-279.084660, -278.358177) translate(278.584660, -0.141823)">
                            <path d="M5.68434189e-14,0.434153401 L5.68434189e-14,263.773153" id="Line"></path>
                            <path d="M0,556.150507 L0,292.811507" id="Line"></path>
                        </g>
                    </g>
                    <g id="Group-7" transform="translate(394.717271, 395.130688) rotate(-45.000000) translate(-394.717271, -395.130688) translate(115.717271, 116.630688)">
                        <g id="Group-6" transform="translate(278.858177, -0.000000)">
                            <path d="M-4.54747351e-13,0.434153401 L-4.54747351e-13,263.773153" id="Line"></path>
                            <path d="M5.68434189e-14,556.150507 L5.68434189e-14,292.811507" id="Line"></path>
                        </g>
                        <g id="Group-6" transform="translate(279.084660, 278.358177) rotate(-270.000000) translate(-279.084660, -278.358177) translate(278.584660, -0.141823)">
                            <path d="M-3.41060513e-13,0.434153401 L-3.41060513e-13,263.773153" id="Line"></path>
                            <path d="M2.84217094e-13,556.150507 L2.84217094e-13,292.811507" id="Line"></path>
                        </g>
                    </g>
                </g>
            </g>
        </g>
        <polygon id="Rectangle-4" fill="#F0F0F0" opacity="0.596315299" points="406.46875 802.882812 378 775.587891 418.660156 733 804.292969 733 831.179688 770.087891 778.755859 826.101562 433.125 826.101562"></polygon>
        <g id="Wings" transform="translate(290.000000, 523.000000)" fill="#F5A623">
            <path d="M322.010448,0 L628.989126,0 C628.989126,0 610.797836,60.6880388 586.200118,60.6880388 L356.050892,60.6880388 L322.010448,0 Z" id="Rectangle-1"></path>
            <path d="M314.5,66 L576.512634,66 C576.512634,66 560.985993,117.798493 539.991333,117.798493 L343.554222,117.798493 L314.5,66 Z" id="Rectangle-1"></path>
            <path d="M309.80597,123 L531.431191,123 C531.431191,123 518.297873,166.814118 500.539393,166.814118 L334.381687,166.814118 L309.80597,123 Z" id="Rectangle-1"></path>
            <path d="M5.68434189e-14,7.10542736e-15 C5.68434189e-14,7.10542736e-15 17.9501048,60.6880388 42.2217,60.6880388 L269.319545,60.6880388 L302.908672,0 L5.68434189e-14,7.10542736e-15 Z" id="Rectangle-1"></path>
            <path d="M51.6343284,66 C51.6343284,66 66.955113,117.798493 87.6714202,117.798493 L281.504115,117.798493 L310.173128,66 L51.6343284,66 Z" id="Rectangle-1"></path>
            <path d="M95.758209,123 C95.758209,123 108.717402,166.814118 126.240435,166.814118 L290.195178,166.814118 L314.445063,123 L95.758209,123 Z" id="Rectangle-1"></path>
        </g>
        <ellipse id="Oval-1" stroke="#112E51" stroke-width="10" fill="#FFFFFF" cx="604.633588" cy="605.544444" rx="122.633588" ry="122.544444"></ellipse>
        <g id="triangle-connect" transform="translate(504.000000, 503.000000)" stroke="#9B9B9B" stroke-width="2" stroke-linecap="square">
            <path d="M101.199972,204.144518 L78.1009099,181.011628" id="Line"></path>
            <path d="M78.1009099,181.011628 L49.4020757,189.423588" id="Line"></path>
            <path d="M49.4020757,189.423588 L41.7023885,159.981728" id="Line"></path>
            <path d="M42.4023601,159.280731 L14.4034975,154.373754" id="Line"></path>
            <path d="M14.4034975,154.373754 L21.0000001,123" id="Line"></path>
            <path d="M21.0000008,122 L1.10403775,103.200997" id="Line"></path>
            <path d="M1.10403775,103.200997 L22.0000008,80" id="line-adjust-2"></path>
            <path d="M22.0000001,79.0000005 L15,51" id="line-adjust-1"></path>
            <path d="M14.4034975,51.3272425 L42.4023601,47.1212625" id="Line"></path>
            <path d="M42.4023601,47.1212625 L49.4020757,15.576412" id="Line"></path>
            <path d="M78.1009099,24.6893688 L49.4020757,15.576412" id="Line"></path>
            <path d="M100.5,1.55647841 L78.8008815,24.6893688" id="Line"></path>
            <path d="M101.199972,0.855481728 L122.199119,23.9883721" id="Line"></path>
            <path d="M122.199119,23.9883721 L152.297896,15.576412" id="Line"></path>
            <path d="M152.297896,15.576412 L157.897668,46.4202658" id="Line"></path>
            <path d="M157.897668,46.4202658 L186.596503,52.0282392" id="Line"></path>
            <path d="M186.596503,52.0282392 L177.496872,79.3671096" id="Line"></path>
            <path d="M177.496872,79.3671096 L200.595934,103.200997" id="Line"></path>
            <path d="M200.595934,103.200997 L177.496872,122.828904" id="Line"></path>
            <path d="M177.496872,122.828904 L186.596503,153.672757" id="Line"></path>
            <path d="M186.596503,153.672757 L157.897668,159.280731" id="Line"></path>
            <path d="M157.897668,159.280731 L152.297896,188.722591" id="Line"></path>
            <path d="M152.297896,189.423588 L122.199119,181.712625" id="Line"></path>
            <path d="M122.199119,181.712625 L101.199972,203.443522" id="Line"></path>
        </g>
        <polygon id="Polygon-1" stroke="#9B9B9B" stroke-width="2" points="604.795905 505 655.193858 518.523868 692.08772 555.471761 705.591811 605.943522 692.08772 656.415282 655.193858 693.363176 604.795905 706.887043 554.397953 693.363176 517.504091 656.415282 504 605.943522 517.504091 555.471761 554.397953 518.523868"></polygon>
        <polygon id="Polygon-1" stroke="#9B9B9B" stroke-width="2" transform="translate(604.196702, 606.315615) rotate(-345.000000) translate(-604.196702, -606.315615) " points="604.196702 525 644.795052 535.894227 674.515108 565.657807 685.393403 606.315615 674.515108 646.973422 644.795052 676.737003 604.196702 687.631229 563.598351 676.737003 533.878295 646.973422 523 606.315615 533.878295 565.657807 563.598351 535.894227"></polygon>
        <g id="Nodes" transform="translate(499.000000, 500.000000)" stroke="#9B9B9B" stroke-width="2" fill="#D8D8D8">
            <ellipse id="Oval-2" cx="105.849986" cy="4.90697674" rx="4.89980096" ry="4.90697674"></ellipse>
            <ellipse id="Oval-2" transform="translate(27.153142, 126.179402) rotate(-90.000000) translate(-27.153142, -126.179402) " cx="27.1531421" cy="126.179402" rx="4.89980096" ry="4.90697674"></ellipse>
            <ellipse id="Oval-adjust-1" transform="translate(26.153142, 82.717608) rotate(-90.000000) translate(-26.153142, -82.717608) " cx="26.1531421" cy="82.717608" rx="4.89980096" ry="4.90697674"></ellipse>
            <ellipse id="Oval-2" transform="translate(182.146886, 126.179402) rotate(-90.000000) translate(-182.146886, -126.179402) " cx="182.146886" cy="126.179402" rx="4.89980096" ry="4.90697674"></ellipse>
            <ellipse id="Oval-2" transform="translate(182.146886, 82.717608) rotate(-90.000000) translate(-182.146886, -82.717608) " cx="182.146886" cy="82.717608" rx="4.89980096" ry="4.90697674"></ellipse>
            <ellipse id="Oval-2" cx="54.7520615" cy="18.9269103" rx="4.89980096" ry="4.90697674"></ellipse>
            <ellipse id="Oval-2" cx="156.94791" cy="18.9269103" rx="4.89980096" ry="4.90697674"></ellipse>
            <ellipse id="Oval-2" cx="83.4508957" cy="27.3388704" rx="4.89980096" ry="4.90697674"></ellipse>
            <ellipse id="Oval-2" cx="126.849133" cy="27.3388704" rx="4.89980096" ry="4.90697674"></ellipse>
            <ellipse id="Oval-2" cx="163.247654" cy="49.7707641" rx="4.89980096" ry="4.90697674"></ellipse>
            <ellipse id="Oval-2" cx="47.0523743" cy="49.7707641" rx="4.89980096" ry="4.90697674"></ellipse>
            <ellipse id="Oval-2" transform="translate(126.849133, 184.362126) rotate(-180.000000) translate(-126.849133, -184.362126) " cx="126.849133" cy="184.362126" rx="4.89980096" ry="4.90697674"></ellipse>
            <ellipse id="Oval-2" transform="translate(83.450896, 184.362126) rotate(-180.000000) translate(-83.450896, -184.362126) " cx="83.4508957" cy="184.362126" rx="4.89980096" ry="4.90697674"></ellipse>
            <ellipse id="Oval-2" transform="translate(47.052374, 161.930233) rotate(-180.000000) translate(-47.052374, -161.930233) " cx="47.0523743" cy="161.930233" rx="4.89980096" ry="4.90697674"></ellipse>
            <ellipse id="Oval-2" transform="translate(163.247654, 161.930233) rotate(-180.000000) translate(-163.247654, -161.930233) " cx="163.247654" cy="161.930233" rx="4.89980096" ry="4.90697674"></ellipse>
            <ellipse id="Oval-2" transform="translate(5.743801, 105.850498) rotate(-180.000000) translate(-5.743801, -105.850498) " cx="5.74380084" cy="105.850498" rx="4.89980096" ry="4.90697674"></ellipse>
            <ellipse id="Oval-2" transform="translate(19.763734, 156.948423) rotate(-180.000000) translate(-19.763734, -156.948423) " cx="19.7637344" cy="156.948423" rx="4.89980096" ry="4.90697674"></ellipse>
            <ellipse id="Oval-2" transform="translate(19.763734, 54.752574) rotate(-180.000000) translate(-19.763734, -54.752574) " cx="19.7637344" cy="54.7525741" rx="4.89980096" ry="4.90697674"></ellipse>
            <ellipse id="Oval-2" transform="translate(205.256199, 105.850498) rotate(-360.000000) translate(-205.256199, -105.850498) " cx="205.256199" cy="105.850498" rx="4.89980096" ry="4.90697674"></ellipse>
            <ellipse id="Oval-2" transform="translate(191.236266, 54.752574) rotate(-360.000000) translate(-191.236266, -54.752574) " cx="191.236266" cy="54.7525741" rx="4.89980096" ry="4.90697674"></ellipse>
            <ellipse id="Oval-2" transform="translate(191.236266, 156.948423) rotate(-360.000000) translate(-191.236266, -156.948423) " cx="191.236266" cy="156.948423" rx="4.89980096" ry="4.90697674"></ellipse>
            <ellipse id="Oval-2" transform="translate(105.849986, 206.093023) rotate(-270.000000) translate(-105.849986, -206.093023) " cx="105.849986" cy="206.093023" rx="4.89980096" ry="4.90697674"></ellipse>
            <ellipse id="Oval-2" transform="translate(156.947910, 192.073090) rotate(-270.000000) translate(-156.947910, -192.073090) " cx="156.94791" cy="192.07309" rx="4.89980096" ry="4.90697674"></ellipse>
            <ellipse id="Oval-2" transform="translate(54.752062, 192.073090) rotate(-270.000000) translate(-54.752062, -192.073090) " cx="54.7520615" cy="192.07309" rx="4.89980096" ry="4.90697674"></ellipse>
        </g>
        <polygon id="Star-2" fill="#112E51" points="604.315064 632.343937 567.656338 657.823956 580.561107 615.085677 545 588.094917 589.634311 587.161227 604.315064 545 618.995816 587.161227 663.630128 588.094917 628.06902 615.085677 640.973789 657.823956"></polygon>
        <text id="DATA-FEDERATION" font-family="SourceSansPro-Bold, Source Sans Pro" font-size="45" font-weight="bold" fill="#000000">
            <tspan x="425" y="817">DATA FEDERATION</tspan>
        </text>
        <text id="THE-UNITED-STATES" font-family="SourceSansPro-Regular, Source Sans Pro" font-size="43" font-weight="normal" fill="#000000">
            <tspan x="423" y="775">THE UNITED STATES</tspan>
        </text>
    </g>
</svg>