<?xml version="1.0" encoding="utf-8"?>
<!-- Generator: Adobe Illustrator 22.1.0, SVG Export Plug-In . SVG Version: 6.00 Build 0)  -->
<svg version="1.1" id="Layer_1" xmlns="http://www.w3.org/2000/svg" xmlns:xlink="http://www.w3.org/1999/xlink" x="0px" y="0px"
	 viewBox="0 0 612 100.197" enable-background="new 0 0 612 100.197" xml:space="preserve">
<rect id="Oval-79" x="1.354" y="-3" opacity="0.06" fill="#F2F2F2" width="628.646" height="103.197"/>
<g opacity="0.1">
	<path fill="none" d="M575.886,0.267l-253.315,34.21l-0.101-0.743L570.283,0.267H444.534L321.998,32.394l-0.19-0.726L441.576,0.267
		h-47.849l-72.27,30.218l-0.289-0.692l0.346-0.145l70.268-29.381h-21.743l-49.633,28.3l-0.372-0.652l0.326-0.186l48.164-27.463
		h-14.668l-34.503,26.658l-0.459-0.593l0.297-0.229L352.63,0.267h-9.451L317.885,25.29l-0.527-0.533l24.755-24.49h-7.627
		l-18.098,23.75l-0.597-0.455l0.228-0.298l17.525-22.997h-5.806l-13.152,22.498l-0.647-0.379l0.188-0.324l12.741-21.796h-5.181
		l-8.91,21.715l-0.694-0.285l0.143-0.347l8.651-21.083h-4.396l-5.726,20.918l-0.724-0.198l0.1-0.362l5.573-20.358h-4.28
		l-2.654,20.691l-0.744-0.095l0.048-0.372l2.594-20.224h-3.905l-0.11,20.391l-0.75-0.004l0.002-0.375l0.108-20.012h-4.192
		l2.799,20.726l-0.743,0.101l-0.05-0.372l-2.762-20.455h-4.014l5.488,20.931l-0.726,0.19l-0.095-0.363l-5.443-20.759h-3.725
		l8.975,21.465l-0.692,0.29l-0.145-0.346l-8.951-21.409h-4.749l12.568,22.042l-0.652,0.372l-0.186-0.326L286.123,0.267h-7.568
		l18.51,23.957l-0.593,0.458l-0.229-0.296l-18.636-24.12h-6.964l24.79,25.059l-0.533,0.527L269.588,0.267h-9.14l34.299,26.138
		l-0.455,0.596l-0.298-0.227L259.21,0.267h-12.864l47.052,27.505l-0.379,0.647l-0.324-0.189L244.86,0.267h-24.561l72.193,29.621
		l-0.285,0.694l-0.347-0.142L218.323,0.267h-40.856l114.118,31.238l-0.198,0.723l-0.362-0.099L174.625,0.267H29.42l261.795,33.578v0
		l0.007,0.001l-0.095,0.744l-0.372-0.047L23.523,0.267h-24.55v33.748l291.825,1.573l-0.004,0.75l-0.375-0.002L-1.027,34.765v42.656
		l292.031-39.438l0.101,0.743l-0.372,0.05L-1.027,78.178v22.337h60.238L291.094,39.72l0.19,0.726l-0.363,0.095L62.169,100.515
		h89.858l139.847-58.474l0.29,0.692l-0.346,0.145l-137.845,57.637h38.736l99.744-56.873l0.372,0.652l-0.326,0.186l-98.275,56.035
		h28.661l70.887-54.77l0.458,0.593l-0.296,0.229l-69.822,53.948h16.668l54.007-53.428l0.527,0.533l-53.468,52.895h15.305
		l39.396-51.698l0.596,0.455l-0.227,0.298l-38.822,50.945h10.175l29.647-50.717l0.647,0.379l-0.189,0.324l-29.237,50.014h10.607
		l20.287-49.443l0.694,0.285l-0.143,0.347l-20.028,48.811h7.708l13.386-48.903l0.723,0.198l-0.099,0.362l-13.233,48.343h8.77
		l6.177-48.158l0.744,0.095l-0.047,0.372l-6.117,47.691h6.906l0.259-48.11l0.75,0.004l-0.002,0.375l-0.257,47.731h8.38
		l-6.476-47.955l0.743-0.101l0.051,0.372l6.44,47.684h7.199l-12.693-48.413l0.726-0.19l0.095,0.363l12.648,48.241h10.32
		L313.08,51.316l0.691-0.29l0.145,0.346l20.548,49.143h8.819L314.63,50.264l0.651-0.372l0.187,0.326l28.678,50.297h10.915
		l-39.178-50.706l0.594-0.458l0.229,0.296l39.303,50.868h12.751l-51.53-52.089l0.533-0.527l52.052,52.616h20.948l-71.216-54.27
		l0.454-0.596l0.299,0.227l71.7,54.639h24.353l-95.922-56.073l0.378-0.647l0.324,0.189l96.706,56.531h44.807l-141.063-57.88
		l0.285-0.694l0.347,0.142l142.407,58.431h76.226L322.011,40.612l0.198-0.723l0.361,0.099l221.119,60.528H653.28V0.267H575.886z
		 M615.716,76.222l-0.008-0.001l0,0l-0.372-0.047L322.612,38.628l0.096-0.744l0.008,0.001l0,0l0.372,0.047l292.724,37.545
		L615.716,76.222z M618.038,38.102l-0.375-0.002l-295.117-1.591l0.004-0.75l0.375,0.002l295.117,1.591L618.038,38.102z"/>
	<polygon fill="#4B4B4B" points="322.55,35.759 322.546,36.509 617.663,38.1 618.038,38.102 618.042,37.352 322.925,35.761 	"/>
	<polygon fill="#4B4B4B" points="290.794,36.338 290.798,35.588 -1.027,34.015 -1.027,34.765 290.419,36.336 	"/>
	<polygon fill="#4B4B4B" points="305.901,20.654 306.651,20.658 306.761,0.267 306.011,0.267 305.903,20.279 	"/>
	<polygon fill="#4B4B4B" points="306.48,52.409 305.73,52.405 305.471,100.515 306.221,100.515 306.478,52.784 	"/>
	<polygon fill="#4B4B4B" points="295.433,25.326 270.642,0.267 269.588,0.267 294.899,25.854 	"/>
	<polygon fill="#4B4B4B" points="317.23,48.426 368.761,100.515 369.816,100.515 317.764,47.899 	"/>
	<polygon fill="#4B4B4B" points="317.885,25.29 343.179,0.267 342.113,0.267 317.357,24.757 	"/>
	<polygon fill="#4B4B4B" points="294.785,47.087 240.778,100.515 241.844,100.515 295.312,47.621 	"/>
	<polygon fill="#4B4B4B" points="313.938,22.387 314.586,22.766 327.738,0.267 326.868,0.267 314.127,22.063 	"/>
	<polygon fill="#4B4B4B" points="298.562,50.177 297.915,49.798 268.267,100.515 269.136,100.515 298.373,50.501 	"/>
	<polygon fill="#4B4B4B" points="320.81,43.795 320.432,44.443 416.354,100.515 417.84,100.515 321.134,43.985 	"/>
	<polygon fill="#4B4B4B" points="293.02,28.419 293.398,27.772 246.346,0.267 244.86,0.267 292.696,28.23 	"/>
	<polygon fill="#4B4B4B" points="301.811,21.389 302.536,21.198 297.048,0.267 296.273,0.267 301.715,21.026 	"/>
	<polygon fill="#4B4B4B" points="310.589,51.912 309.863,52.102 322.556,100.515 323.331,100.515 310.684,52.274 	"/>
	<polygon fill="#4B4B4B" points="321.998,32.394 444.534,0.267 441.576,0.267 321.808,31.668 	"/>
	<polygon fill="#4B4B4B" points="291.285,40.446 291.094,39.72 59.211,100.515 62.169,100.515 290.922,40.541 	"/>
	<polygon fill="#4B4B4B" points="320.034,27.916 320.406,28.567 370.039,0.267 368.525,0.267 320.36,27.73 	"/>
	<polygon fill="#4B4B4B" points="292.823,44.294 292.452,43.643 192.708,100.515 194.222,100.515 292.497,44.48 	"/>
	<polygon fill="#4B4B4B" points="315.281,49.892 314.63,50.264 343.282,100.515 344.146,100.515 315.468,50.218 	"/>
	<polygon fill="#4B4B4B" points="298.902,22.681 299.554,22.31 286.986,0.267 286.123,0.267 298.717,22.355 	"/>
	<polygon fill="#4B4B4B" points="310.03,20.987 310.754,21.186 316.48,0.267 315.703,0.267 310.13,20.625 	"/>
	<polygon fill="#4B4B4B" points="302.371,51.811 301.647,51.612 288.261,100.515 289.039,100.515 302.272,52.172 	"/>
	<polygon fill="#4B4B4B" points="322.209,39.889 322.011,40.612 540.848,100.515 543.689,100.515 322.57,39.987 	"/>
	<polygon fill="#4B4B4B" points="291.386,32.229 291.584,31.505 177.467,0.267 174.625,0.267 291.024,32.13 	"/>
	<polygon fill="#4B4B4B" points="322.62,38.629 322.716,37.886 322.708,37.885 322.612,38.628 615.336,76.173 615.708,76.221 
		615.708,76.221 615.344,76.174 	"/>
	<polygon fill="#4B4B4B" points="291.214,33.845 29.42,0.267 29.419,0.267 291.214,33.845 	"/>
	<polygon fill="#4B4B4B" points="308.024,20.863 308.769,20.958 311.422,0.267 310.666,0.267 308.072,20.491 	"/>
	<polygon fill="#4B4B4B" points="304.729,52.453 303.985,52.357 297.809,100.515 298.565,100.515 304.682,52.825 	"/>
	<polygon fill="#4B4B4B" points="322.716,37.886 322.716,37.886 322.62,38.629 615.344,76.174 615.708,76.221 615.716,76.222 
		615.812,75.478 323.088,37.933 	"/>
	<polygon fill="#4B4B4B" points="291.126,34.59 291.222,33.846 291.214,33.845 29.419,0.267 23.523,0.267 290.754,34.542 	"/>
	<polygon fill="#4B4B4B" points="296.472,24.683 297.065,24.225 278.555,0.267 277.607,0.267 296.242,24.387 	"/>
	<polygon fill="#4B4B4B" points="316.478,49.351 315.884,49.809 355.062,100.515 356.01,100.515 316.707,49.647 	"/>
	<polygon fill="#4B4B4B" points="318.896,26.332 319.354,26.925 353.857,0.267 352.63,0.267 319.192,26.103 	"/>
	<polygon fill="#4B4B4B" points="294.229,46.338 293.77,45.745 222.883,100.515 224.11,100.515 293.932,46.568 	"/>
	<polygon fill="#4B4B4B" points="315.791,23.562 316.388,24.017 334.486,0.267 333.543,0.267 316.019,23.264 	"/>
	<polygon fill="#4B4B4B" points="297.142,49.272 296.546,48.817 257.15,100.515 258.093,100.515 296.915,49.57 	"/>
	<polygon fill="#4B4B4B" points="320.002,45.649 319.548,46.246 390.764,100.515 392.001,100.515 320.301,45.876 	"/>
	<polygon fill="#4B4B4B" points="294.292,27.001 294.747,26.405 260.448,0.267 259.21,0.267 293.994,26.774 	"/>
	<polygon fill="#4B4B4B" points="303.875,21.094 304.618,20.993 301.819,0.267 301.062,0.267 303.825,20.722 	"/>
	<polygon fill="#4B4B4B" points="308.867,52.459 308.124,52.56 314.6,100.515 315.358,100.515 308.918,52.831 	"/>
	<polygon fill="#4B4B4B" points="322.571,34.477 575.886,0.267 570.283,0.267 322.471,33.734 	"/>
	<polygon fill="#4B4B4B" points="291.105,38.726 291.004,37.983 -1.027,77.421 -1.027,78.178 290.733,38.776 	"/>
	<polygon fill="#4B4B4B" points="321.168,29.793 321.457,30.485 393.727,0.267 391.782,0.267 321.514,29.648 	"/>
	<polygon fill="#4B4B4B" points="292.163,42.733 291.874,42.042 152.027,100.515 153.972,100.515 291.817,42.878 	"/>
	<polygon fill="#4B4B4B" points="313.771,51.026 313.08,51.316 333.652,100.515 334.464,100.515 313.916,51.373 	"/>
	<polygon fill="#4B4B4B" points="300.831,22.022 301.523,21.732 292.548,0.267 291.735,0.267 300.686,21.676 	"/>
	<polygon fill="#4B4B4B" points="312.083,21.697 312.777,21.982 321.687,0.267 320.876,0.267 312.226,21.35 	"/>
	<polygon fill="#4B4B4B" points="300.724,51.357 300.03,51.072 279.743,100.515 280.553,100.515 300.581,51.704 	"/>
	<polygon fill="#4B4B4B" points="321.868,41.942 321.583,42.636 462.646,100.515 464.622,100.515 322.215,42.084 	"/>
	<polygon fill="#4B4B4B" points="292.208,30.583 292.492,29.889 220.299,0.267 218.323,0.267 291.86,30.44 	"/>
</g>
<rect x="322.25" y="27.317" transform="matrix(0.9984 -0.0573 0.0573 0.9984 -0.8145 26.9633)" opacity="0.06" fill="#4B4B4B" width="295.495" height="0.75"/>
<rect x="-4.463" y="46.034" transform="matrix(0.9984 -0.0573 0.0573 0.9984 -2.4228 8.2824)" opacity="0.06" fill="#4B4B4B" width="295.497" height="0.75"/>
<rect x="466.605" y="-77.456" transform="matrix(0.2031 -0.9791 0.9791 0.2031 303.2876 513.2554)" opacity="0.06" fill="#4B4B4B" width="0.75" height="295.497"/>
<polygon opacity="0.06" fill="#4B4B4B" points="617.586,56.805 617.212,56.781 322.713,37.628 322.762,36.879 323.136,36.904 
	617.635,56.057 "/>
<rect x="143.241" y="-122.144" transform="matrix(0.0649 -0.9979 0.9979 0.0649 108.7448 167.2558)" opacity="0.06" fill="#4B4B4B" width="0.75" height="295.496"/>
<polygon opacity="0.06" fill="#4B4B4B" points="1.483,98.492 1.337,97.756 1.705,97.683 291.126,39.962 291.272,40.697 
	290.905,40.771 "/>
<polygon opacity="0.06" fill="#4B4B4B" points="305.658,21.692 304.431,0.267 303.679,0.267 304.909,21.735 "/>
<polygon opacity="0.06" fill="#4B4B4B" points="306.725,53.434 309.404,100.197 310.155,100.197 307.474,53.391 "/>
<polygon opacity="0.06" fill="#4B4B4B" points="294.753,27.053 264.712,0.267 263.585,0.267 294.254,27.612 "/>
<polygon opacity="0.06" fill="#4B4B4B" points="318.452,48.184 317.953,48.743 375.66,100.197 376.787,100.197 318.732,48.433 "/>
<polygon opacity="0.06" fill="#4B4B4B" points="316.6,25.112 317.159,25.611 339.757,0.267 338.752,0.267 316.849,24.833 "/>
<polygon opacity="0.06" fill="#4B4B4B" points="295.469,48.812 249.653,100.197 250.657,100.197 296.028,49.311 "/>
<polygon opacity="0.06" fill="#4B4B4B" points="313.038,22.961 313.708,23.298 325.302,0.267 324.463,0.267 313.207,22.626 "/>
<polygon opacity="0.06" fill="#4B4B4B" points="299.431,51.659 298.761,51.322 274.157,100.197 274.997,100.197 299.263,51.994 "/>
<polygon opacity="0.06" fill="#4B4B4B" points="321.237,43.898 320.899,44.568 431.403,100.197 433.072,100.197 321.572,44.066 "/>
<polygon opacity="0.06" fill="#4B4B4B" points="292.539,30.291 292.875,29.621 234.566,0.267 232.898,0.267 292.204,30.122 "/>
<polygon opacity="0.06" fill="#4B4B4B" points="300.873,22.724 301.584,22.488 294.245,0.267 293.455,0.267 300.755,22.368 "/>
<polygon opacity="0.06" fill="#4B4B4B" points="311.543,52.638 310.831,52.873 326.462,100.197 327.253,100.197 311.661,52.994 "/>
<polygon opacity="0.06" fill="#4B4B4B" points="321.709,32.443 419.121,0.267 416.73,0.267 321.474,31.731 "/>
<polygon opacity="0.06" fill="#4B4B4B" points="291.56,42.402 291.324,41.69 114.198,100.197 116.589,100.197 291.204,42.52 "/>
<polygon opacity="0.06" fill="#4B4B4B" points="319.469,28.097 319.881,28.724 363.237,0.267 361.87,0.267 319.782,27.892 "/>
<polygon opacity="0.06" fill="#4B4B4B" points="293.335,46.147 292.924,45.52 209.62,100.197 210.986,100.197 293.022,46.353 "/>
<polygon opacity="0.06" fill="#4B4B4B" points="316.1,50.329 315.473,50.74 347.934,100.197 348.831,100.197 316.306,50.642 "/>
<polygon opacity="0.06" fill="#4B4B4B" points="298.05,24.195 298.677,23.784 283.242,0.267 282.346,0.267 297.845,23.881 "/>
<polygon opacity="0.06" fill="#4B4B4B" points="309.785,21.961 314.286,0.267 313.52,0.267 309.051,21.809 "/>
<polygon opacity="0.06" fill="#4B4B4B" points="302.601,52.898 292.788,100.197 293.554,100.197 303.335,53.051 "/>
<polygon opacity="0.06" fill="#4B4B4B" points="291.299,33.46 131.311,0.267 127.619,0.267 291.147,34.195 "/>
<polygon opacity="0.06" fill="#4B4B4B" points="307.79,21.859 309.194,0.267 308.443,0.267 307.042,21.811 "/>
<polygon opacity="0.06" fill="#4B4B4B" points="304.98,53.495 301.943,100.197 302.695,100.197 305.729,53.543 "/>
<polygon opacity="0.06" fill="#4B4B4B" points="295.75,26.346 296.313,25.851 273.854,0.267 272.856,0.267 295.502,26.064 "/>
<polygon opacity="0.06" fill="#4B4B4B" points="317.261,49.712 316.697,50.208 360.581,100.197 361.58,100.197 317.509,49.994 "/>
<polygon opacity="0.06" fill="#4B4B4B" points="318.233,26.588 318.729,27.152 349.353,0.267 348.216,0.267 318.516,26.341 "/>
<polygon opacity="0.06" fill="#4B4B4B" points="294.867,48.099 294.372,47.535 234.384,100.197 235.521,100.197 294.585,48.346 "/>
<polygon opacity="0.06" fill="#4B4B4B" points="314.961,24.018 315.585,24.435 331.715,0.267 330.814,0.267 315.17,23.707 "/>
<polygon opacity="0.06" fill="#4B4B4B" points="297.958,50.844 297.334,50.428 264.116,100.197 265.017,100.197 297.75,51.156 "/>
<polygon opacity="0.06" fill="#4B4B4B" points="320.547,45.798 320.13,46.422 400.697,100.197 402.048,100.197 320.858,46.006 "/>
<polygon opacity="0.06" fill="#4B4B4B" points="293.72,28.795 294.137,28.172 252.329,0.267 250.978,0.267 293.409,28.587 "/>
<polygon opacity="0.06" fill="#4B4B4B" points="302.914,22.3 303.649,22.153 299.285,0.267 298.52,0.267 302.841,21.932 "/>
<polygon opacity="0.06" fill="#4B4B4B" points="309.859,53.292 309.124,53.438 318.449,100.197 319.215,100.197 309.934,53.66 "/>
<polygon opacity="0.06" fill="#4B4B4B" points="322.264,33.751 322.411,34.487 493.993,0.267 490.159,0.267 322.632,33.678 "/>
<polygon opacity="0.06" fill="#4B4B4B" points="320.718,29.9 321.05,30.573 382.425,0.267 380.73,0.267 321.054,29.734 "/>
<polygon opacity="0.06" fill="#4B4B4B" points="292.58,44.631 292.248,43.958 178.352,100.197 180.046,100.197 292.243,44.797 "/>
<polygon opacity="0.06" fill="#4B4B4B" points="314.664,51.555 313.992,51.887 337.846,100.197 338.682,100.197 314.83,51.891 "/>
<polygon opacity="0.06" fill="#4B4B4B" points="299.934,23.417 300.607,23.085 289.34,0.267 288.503,0.267 299.768,23.081 "/>
<polygon opacity="0.06" fill="#4B4B4B" points="311.144,22.389 311.854,22.63 319.432,0.267 318.64,0.267 311.264,22.034 "/>
<polygon opacity="0.06" fill="#4B4B4B" points="301.663,52.701 300.953,52.46 284.775,100.197 285.567,100.197 301.542,53.057 "/>
<polygon opacity="0.06" fill="#4B4B4B" points="322.176,41.981 321.935,42.692 491.62,100.197 493.957,100.197 322.53,42.102 "/>
<polygon opacity="0.06" fill="#4B4B4B" points="291.863,32.5 292.104,31.79 199.086,0.267 196.75,0.267 291.508,32.38 "/>
<polygon id="Rectangle-4" opacity="0.5963" fill="#F1F0F0" enable-background="new    " points="255.041,87.91 247.645,80.819 
	258.209,69.755 358.396,69.755 365.381,79.39 351.762,93.943 261.967,93.943 "/>
<g id="Wings" transform="translate(290.000000, 523.000000)">
	<path id="Rectangle-1" fill="#F5A722" d="M18.441-507.803h79.753c0,0-4.726,15.767-11.117,15.767H27.285L18.441-507.803z"/>
	<path id="Rectangle-1_1_" fill="#F5A722" d="M16.49-490.656h68.071c0,0-4.034,13.457-9.488,13.457H24.038L16.49-490.656z"/>
	<path id="Rectangle-1_2_" fill="#F5A722" d="M15.27-475.848h57.578c0,0-3.412,11.383-8.026,11.383H21.655L15.27-475.848z"/>
	<path id="Rectangle-1_3_" fill="#F5A722" d="M-65.217-507.803c0,0,4.663,15.767,10.969,15.767h59l8.726-15.767H-65.217z"/>
	<path id="Rectangle-1_4_" fill="#F5A722" d="M-51.803-490.656c0,0,3.98,13.457,9.362,13.457H7.918l7.448-13.457H-51.803z"/>
	<path id="Rectangle-1_5_" fill="#F5A722" d="M-40.339-475.848c0,0,3.367,11.383,7.919,11.383h42.596l6.3-11.383H-40.339z"/>
</g>
<g>
	<ellipse id="Oval-1_1_" fill="#FFFFFF" cx="306.525" cy="36.642" rx="31.86" ry="31.837"/>
	<path fill="#102F51" d="M306.525,69.778c-18.284,0-33.159-14.865-33.159-33.136c0-18.271,14.875-33.136,33.159-33.136
		c18.284,0,33.159,14.865,33.159,33.136C339.684,54.913,324.809,69.778,306.525,69.778z M306.525,6.104
		c-16.852,0-30.561,13.699-30.561,30.538c0,16.839,13.71,30.538,30.561,30.538c16.852,0,30.561-13.699,30.561-30.538
		C337.086,19.803,323.376,6.104,306.525,6.104z"/>
</g>
<g id="triangle-connect" transform="translate(504.000000, 503.000000)">
	
		<rect x="-200.589" y="-447.474" transform="matrix(0.7076 -0.7066 0.7066 0.7076 254.4256 -271.0656)" fill="#9B9B9B" width="0.52" height="9.013"/>
	
		<rect x="-211.202" y="-445.14" transform="matrix(0.9597 -0.2812 0.2812 0.9597 116.7306 -76.163)" fill="#9B9B9B" width="8.289" height="0.52"/>
	
		<rect x="-212.045" y="-451.825" transform="matrix(0.9675 -0.253 0.253 0.9675 106.361 -68.1488)" fill="#9B9B9B" width="0.52" height="8.426"/>
	
		<rect x="-216.501" y="-456.208" transform="matrix(0.1726 -0.985 0.985 0.1726 266.548 -587.2002)" fill="#9B9B9B" width="0.52" height="7.905"/>
	
		<rect x="-223.446" y="-457.228" transform="matrix(0.206 -0.9785 0.9785 0.206 273.2658 -577.1512)" fill="#9B9B9B" width="8.849" height="0.52"/>
	
		<rect x="-221.009" y="-467.561" transform="matrix(0.6868 -0.7269 0.7269 0.6868 267.9352 -305.7014)" fill="#9B9B9B" width="0.52" height="7.631"/>
	
		<rect x="-224.935" y="-469.461" transform="matrix(0.6691 -0.7431 0.7431 0.6691 275.6867 -319.1898)" fill="#9B9B9B" width="8.632" height="0.519"/>
	
		<rect x="-219.074" y="-480.121" transform="matrix(0.9701 -0.2425 0.2425 0.9701 108.9441 -67.2882)" fill="#9B9B9B" width="0.52" height="8.018"/>
	
		<rect x="-220.179" y="-480.471" transform="matrix(0.9889 -0.1487 0.1487 0.9889 68.9866 -37.4831)" fill="#9B9B9B" width="7.875" height="0.52"/>
	
		<rect x="-216.152" y="-485.115" transform="matrix(0.2165 -0.9763 0.9763 0.2165 307.4971 -586.535)" fill="#9B9B9B" width="8.914" height="0.52"/>
	
		<rect x="-207.317" y="-491.94" transform="matrix(0.3027 -0.9531 0.9531 0.3027 320.5022 -537.4889)" fill="#9B9B9B" width="0.52" height="8.343"/>
	
		<rect x="-204.709" y="-489.85" transform="matrix(0.684 -0.7294 0.7294 0.684 293.8332 -300.8206)" fill="#9B9B9B" width="8.76" height="0.52"/>
	
		<rect x="-194.86" y="-494.09" transform="matrix(0.7404 -0.6721 0.6721 0.7404 278.679 -257.926)" fill="#9B9B9B" width="0.52" height="8.636"/>
	
		<rect x="-192.282" y="-488.12" transform="matrix(0.9631 -0.269 0.269 0.9631 124.324 -68.5578)" fill="#9B9B9B" width="8.639" height="0.52"/>
	
		<rect x="-183.585" y="-489.278" transform="matrix(0.9839 -0.1786 0.1786 0.9839 83.6647 -40.5396)" fill="#9B9B9B" width="0.52" height="8.664"/>
	
		<rect x="-179.13" y="-484.269" transform="matrix(0.1918 -0.9814 0.9814 0.1918 326.7309 -563.6644)" fill="#9B9B9B" width="0.52" height="8.117"/>
	
		<rect x="-180.327" y="-476.191" transform="matrix(0.3159 -0.9488 0.9488 0.3159 330.937 -492.8609)" fill="#9B9B9B" width="8.005" height="0.52"/>
	
		<rect x="-174.766" y="-473.855" transform="matrix(0.7181 -0.6959 0.6959 0.7181 277.4002 -253.7368)" fill="#9B9B9B" width="0.52" height="9.142"/>
	
		<rect x="-178.703" y="-463.898" transform="matrix(0.7619 -0.6476 0.6476 0.7619 258.7314 -223.3923)" fill="#9B9B9B" width="8.394" height="0.519"/>
	
		<rect x="-176.584" y="-461.519" transform="matrix(0.9591 -0.283 0.283 0.9591 122.138 -68.5792)" fill="#9B9B9B" width="0.52" height="8.874"/>
	
		<rect x="-182.929" y="-452.606" transform="matrix(0.9815 -0.1914 0.1914 0.9815 83.28 -42.6036)" fill="#9B9B9B" width="8.117" height="0.52"/>
	
		<rect x="-187.479" y="-448.053" transform="matrix(0.1865 -0.9824 0.9824 0.1865 290.8045 -544.3755)" fill="#9B9B9B" width="8.306" height="0.52"/>
	
		<rect x="-188.223" y="-449.084" transform="matrix(0.2482 -0.9687 0.9687 0.2482 289.5577 -516.4899)" fill="#9B9B9B" width="0.52" height="8.592"/>
	
		<rect x="-198.786" y="-443.227" transform="matrix(0.6948 -0.7192 0.7192 0.6948 259.1927 -275.1541)" fill="#9B9B9B" width="8.37" height="0.52"/>
</g>
<path fill="#9B9B9B" d="M306.567,63.239l-13.228-3.549l-9.684-9.698l-0.018-0.067l-3.526-13.18l3.544-13.247l9.684-9.698
	l13.228-3.55l13.228,3.55l9.683,9.698l3.544,13.247l-3.544,13.247l-0.049,0.049l-9.634,9.648l-0.068,0.018L306.567,63.239z
	 M293.608,59.224l12.959,3.477l12.959-3.477l9.487-9.501l3.472-12.978l-3.472-12.978l-9.487-9.5l-12.959-3.477l-12.959,3.477
	l-9.487,9.5l-3.472,12.978l3.472,12.978L293.608,59.224z"/>
<path fill="#9B9B9B" d="M300.874,57.508l-0.06-0.035l-9.516-5.499l-5.526-9.588l0.004-11.074l5.533-9.592l9.58-5.54l11.06-0.004
	l9.576,5.533l5.527,9.588l-0.004,11.073l-5.533,9.592l-9.58,5.54L300.874,57.508z M291.678,51.594l9.335,5.394l10.781-0.004
	l9.339-5.401l5.394-9.351l0.004-10.795l-5.388-9.347l-9.335-5.394L301.028,16.7l-9.339,5.401l-5.394,9.351l-0.004,10.795
	L291.678,51.594z"/>
<g id="Nodes" transform="translate(499.000000, 500.000000)">
	<g>
		<ellipse id="Oval-2_1_" fill="#D8D9D8" cx="-192.419" cy="-489.504" rx="1.273" ry="1.275"/>
		<path fill="#9B9B9B" d="M-192.419-487.969c-0.845,0-1.533-0.688-1.533-1.535c0-0.846,0.688-1.535,1.533-1.535
			c0.845,0,1.533,0.688,1.533,1.535C-190.886-488.658-191.574-487.969-192.419-487.969z M-192.419-490.519
			c-0.559,0-1.013,0.455-1.013,1.015s0.455,1.015,1.013,1.015c0.559,0,1.013-0.455,1.013-1.015S-191.86-490.519-192.419-490.519z"/>
	</g>
	<g>
		<ellipse id="Oval-2_2_" fill="#D8D9D8" cx="-212.865" cy="-457.997" rx="1.275" ry="1.273"/>
		<path fill="#9B9B9B" d="M-212.865-456.465c-0.846,0-1.535-0.688-1.535-1.533c0-0.845,0.688-1.533,1.535-1.533
			c0.846,0,1.535,0.688,1.535,1.533C-211.33-457.152-212.018-456.465-212.865-456.465z M-212.865-459.011
			c-0.56,0-1.015,0.455-1.015,1.013c0,0.559,0.455,1.013,1.015,1.013c0.56,0,1.015-0.454,1.015-1.013
			C-211.85-458.556-212.305-459.011-212.865-459.011z"/>
	</g>
	<g>
		<ellipse id="Oval-adjust-1_1_" fill="#D8D9D8" cx="-213.124" cy="-469.289" rx="1.275" ry="1.273"/>
		<path fill="#9B9B9B" d="M-213.124-467.756c-0.846,0-1.535-0.688-1.535-1.533c0-0.845,0.688-1.533,1.535-1.533
			c0.846,0,1.535,0.688,1.535,1.533C-211.59-468.444-212.278-467.756-213.124-467.756z M-213.124-470.302
			c-0.56,0-1.015,0.455-1.015,1.013c0,0.559,0.455,1.013,1.015,1.013s1.015-0.455,1.015-1.013
			C-212.109-469.847-212.565-470.302-213.124-470.302z"/>
	</g>
	<g>
		<ellipse id="Oval-2_3_" fill="#D8D9D8" cx="-172.597" cy="-457.997" rx="1.275" ry="1.273"/>
		<path fill="#9B9B9B" d="M-172.597-456.465c-0.846,0-1.534-0.688-1.534-1.533c0-0.845,0.688-1.533,1.534-1.533
			c0.846,0,1.535,0.688,1.535,1.533C-171.063-457.152-171.751-456.465-172.597-456.465z M-172.597-459.011
			c-0.56,0-1.015,0.455-1.015,1.013c0,0.559,0.455,1.013,1.015,1.013c0.56,0,1.015-0.454,1.015-1.013
			C-171.582-458.556-172.038-459.011-172.597-459.011z"/>
	</g>
	<g>
		<ellipse id="Oval-2_4_" fill="#D8D9D8" cx="-172.597" cy="-469.289" rx="1.275" ry="1.273"/>
		<path fill="#9B9B9B" d="M-172.597-467.756c-0.846,0-1.534-0.688-1.534-1.533c0-0.845,0.688-1.533,1.534-1.533
			c0.846,0,1.535,0.688,1.535,1.533C-171.063-468.444-171.751-467.756-172.597-467.756z M-172.597-470.302
			c-0.56,0-1.015,0.455-1.015,1.013c0,0.559,0.455,1.013,1.015,1.013c0.56,0,1.015-0.455,1.015-1.013
			C-171.582-469.847-172.038-470.302-172.597-470.302z"/>
	</g>
	<g>
		<ellipse id="Oval-2_5_" fill="#D8D9D8" cx="-205.694" cy="-485.862" rx="1.273" ry="1.275"/>
		<path fill="#9B9B9B" d="M-205.694-484.327c-0.845,0-1.533-0.688-1.533-1.535c0-0.846,0.688-1.535,1.533-1.535
			c0.845,0,1.533,0.688,1.533,1.535C-204.162-485.015-204.849-484.327-205.694-484.327z M-205.694-486.877
			c-0.559,0-1.013,0.455-1.013,1.015c0,0.56,0.455,1.015,1.013,1.015s1.013-0.455,1.013-1.015
			C-204.681-486.421-205.136-486.877-205.694-486.877z"/>
	</g>
	<g>
		<ellipse id="Oval-2_6_" fill="#D8D9D8" cx="-179.144" cy="-485.862" rx="1.273" ry="1.275"/>
		<path fill="#9B9B9B" d="M-179.144-484.327c-0.845,0-1.533-0.688-1.533-1.535c0-0.846,0.688-1.535,1.533-1.535
			c0.845,0,1.533,0.688,1.533,1.535C-177.611-485.015-178.299-484.327-179.144-484.327z M-179.144-486.877
			c-0.559,0-1.013,0.455-1.013,1.015c0,0.56,0.455,1.015,1.013,1.015s1.013-0.455,1.013-1.015
			C-178.131-486.421-178.585-486.877-179.144-486.877z"/>
	</g>
	<g>
		<ellipse id="Oval-2_7_" fill="#D8D9D8" cx="-198.238" cy="-483.676" rx="1.273" ry="1.275"/>
		<path fill="#9B9B9B" d="M-198.239-482.141c-0.845,0-1.533-0.688-1.533-1.535c0-0.846,0.688-1.535,1.533-1.535
			c0.845,0,1.533,0.688,1.533,1.535C-196.706-482.83-197.393-482.141-198.239-482.141z M-198.239-484.691
			c-0.559,0-1.013,0.455-1.013,1.015s0.455,1.015,1.013,1.015c0.559,0,1.013-0.455,1.013-1.015S-197.68-484.691-198.239-484.691z"/>
	</g>
	<g>
		<ellipse id="Oval-2_8_" fill="#D8D9D8" cx="-186.964" cy="-483.676" rx="1.273" ry="1.275"/>
		<path fill="#9B9B9B" d="M-186.963-482.141c-0.845,0-1.533-0.688-1.533-1.535c0-0.846,0.688-1.535,1.533-1.535
			c0.845,0,1.533,0.688,1.533,1.535C-185.431-482.83-186.118-482.141-186.963-482.141z M-186.963-484.691
			c-0.559,0-1.013,0.455-1.013,1.015s0.455,1.015,1.013,1.015s1.013-0.455,1.013-1.015S-186.405-484.691-186.963-484.691z"/>
	</g>
	<g>
		<ellipse id="Oval-2_9_" fill="#D8D9D8" cx="-177.507" cy="-477.848" rx="1.273" ry="1.275"/>
		<path fill="#9B9B9B" d="M-177.507-476.314c-0.845,0-1.533-0.688-1.533-1.535c0-0.846,0.688-1.535,1.533-1.535
			c0.845,0,1.533,0.688,1.533,1.535C-175.974-477.002-176.662-476.314-177.507-476.314z M-177.507-478.863
			c-0.559,0-1.013,0.455-1.013,1.015s0.455,1.015,1.013,1.015s1.013-0.455,1.013-1.015S-176.948-478.863-177.507-478.863z"/>
	</g>
	<g>
		<ellipse id="Oval-2_10_" fill="#D8D9D8" cx="-207.695" cy="-477.848" rx="1.273" ry="1.275"/>
		<path fill="#9B9B9B" d="M-207.695-476.314c-0.845,0-1.533-0.688-1.533-1.535c0-0.846,0.688-1.535,1.533-1.535
			s1.533,0.688,1.533,1.535C-206.162-477.002-206.85-476.314-207.695-476.314z M-207.695-478.863c-0.559,0-1.013,0.455-1.013,1.015
			s0.455,1.015,1.013,1.015s1.013-0.455,1.013-1.015S-207.136-478.863-207.695-478.863z"/>
	</g>
	<g>
		<ellipse id="Oval-2_11_" fill="#D8D9D8" cx="-186.964" cy="-442.881" rx="1.273" ry="1.275"/>
		<path fill="#9B9B9B" d="M-186.963-441.347c-0.845,0-1.533-0.689-1.533-1.535c0-0.846,0.688-1.535,1.533-1.535
			c0.845,0,1.533,0.689,1.533,1.535C-185.431-442.035-186.118-441.347-186.963-441.347z M-186.963-443.896
			c-0.559,0-1.013,0.455-1.013,1.015c0,0.56,0.455,1.015,1.013,1.015s1.013-0.455,1.013-1.015
			C-185.95-443.441-186.405-443.896-186.963-443.896z"/>
	</g>
	<g>
		<ellipse id="Oval-2_12_" fill="#D8D9D8" cx="-198.238" cy="-442.881" rx="1.273" ry="1.275"/>
		<path fill="#9B9B9B" d="M-198.239-441.347c-0.845,0-1.533-0.689-1.533-1.535c0-0.846,0.688-1.535,1.533-1.535
			c0.845,0,1.533,0.689,1.533,1.535C-196.706-442.035-197.393-441.347-198.239-441.347z M-198.239-443.896
			c-0.559,0-1.013,0.455-1.013,1.015c0,0.56,0.455,1.015,1.013,1.015c0.559,0,1.013-0.455,1.013-1.015
			C-197.225-443.441-197.68-443.896-198.239-443.896z"/>
	</g>
	<g>
		<ellipse id="Oval-2_13_" fill="#D8D9D8" cx="-207.695" cy="-448.709" rx="1.273" ry="1.275"/>
		<path fill="#9B9B9B" d="M-207.695-447.175c-0.845,0-1.533-0.688-1.533-1.534s0.688-1.535,1.533-1.535s1.533,0.689,1.533,1.535
			S-206.85-447.175-207.695-447.175z M-207.695-449.724c-0.559,0-1.013,0.455-1.013,1.015s0.455,1.015,1.013,1.015
			s1.013-0.455,1.013-1.015S-207.136-449.724-207.695-449.724z"/>
	</g>
	<g>
		<ellipse id="Oval-2_14_" fill="#D8D9D8" cx="-177.507" cy="-448.709" rx="1.273" ry="1.275"/>
		<path fill="#9B9B9B" d="M-177.507-447.175c-0.845,0-1.533-0.688-1.533-1.534s0.688-1.535,1.533-1.535
			c0.845,0,1.533,0.689,1.533,1.535S-176.662-447.175-177.507-447.175z M-177.507-449.724c-0.559,0-1.013,0.455-1.013,1.015
			s0.455,1.015,1.013,1.015s1.013-0.455,1.013-1.015S-176.948-449.724-177.507-449.724z"/>
	</g>
	<g>
		<ellipse id="Oval-2_15_" fill="#D8D9D8" cx="-218.427" cy="-463.279" rx="1.273" ry="1.275"/>
		<path fill="#9B9B9B" d="M-218.427-461.744c-0.845,0-1.533-0.689-1.533-1.535c0-0.846,0.688-1.535,1.533-1.535
			c0.845,0,1.533,0.688,1.533,1.535C-216.894-462.433-217.582-461.744-218.427-461.744z M-218.427-464.294
			c-0.559,0-1.013,0.455-1.013,1.015s0.455,1.015,1.013,1.015c0.559,0,1.013-0.455,1.013-1.015S-217.868-464.294-218.427-464.294z"
			/>
	</g>
	<g>
		<ellipse id="Oval-2_16_" fill="#D8D9D8" cx="-214.784" cy="-450.003" rx="1.273" ry="1.275"/>
		<path fill="#9B9B9B" d="M-214.784-448.469c-0.845,0-1.533-0.689-1.533-1.535s0.688-1.535,1.533-1.535s1.533,0.689,1.533,1.535
			S-213.939-448.469-214.784-448.469z M-214.784-451.019c-0.559,0-1.013,0.455-1.013,1.015s0.455,1.015,1.013,1.015
			s1.013-0.455,1.013-1.015S-214.226-451.019-214.784-451.019z"/>
	</g>
	<g>
		<ellipse id="Oval-2_17_" fill="#D8D9D8" cx="-214.784" cy="-476.554" rx="1.273" ry="1.275"/>
		<path fill="#9B9B9B" d="M-214.784-475.019c-0.845,0-1.533-0.688-1.533-1.535c0-0.846,0.688-1.535,1.533-1.535
			s1.533,0.688,1.533,1.535C-213.252-475.708-213.939-475.019-214.784-475.019z M-214.784-477.569c-0.559,0-1.013,0.455-1.013,1.015
			c0,0.56,0.455,1.015,1.013,1.015s1.013-0.455,1.013-1.015C-213.771-477.114-214.226-477.569-214.784-477.569z"/>
	</g>
	<g>
		<ellipse id="Oval-2_18_" fill="#D8D9D8" cx="-166.593" cy="-463.279" rx="1.273" ry="1.275"/>
		<path fill="#9B9B9B" d="M-166.594-461.744c-0.845,0-1.533-0.689-1.533-1.535c0-0.846,0.688-1.535,1.533-1.535
			c0.845,0,1.533,0.688,1.533,1.535C-165.061-462.433-165.748-461.744-166.594-461.744z M-166.594-464.294
			c-0.559,0-1.013,0.455-1.013,1.015s0.454,1.015,1.013,1.015s1.013-0.455,1.013-1.015S-166.035-464.294-166.594-464.294z"/>
	</g>
	<g>
		<ellipse id="Oval-2_19_" fill="#D8D9D8" cx="-170.236" cy="-476.554" rx="1.273" ry="1.275"/>
		<path fill="#9B9B9B" d="M-170.236-475.019c-0.845,0-1.533-0.688-1.533-1.535c0-0.846,0.688-1.535,1.533-1.535
			c0.845,0,1.533,0.688,1.533,1.535C-168.703-475.708-169.391-475.019-170.236-475.019z M-170.236-477.569
			c-0.559,0-1.013,0.455-1.013,1.015c0,0.56,0.454,1.015,1.013,1.015c0.559,0,1.013-0.455,1.013-1.015
			C-169.223-477.114-169.677-477.569-170.236-477.569z"/>
	</g>
	<g>
		<ellipse id="Oval-2_20_" fill="#D8D9D8" cx="-170.236" cy="-450.003" rx="1.273" ry="1.275"/>
		<path fill="#9B9B9B" d="M-170.236-448.469c-0.845,0-1.533-0.689-1.533-1.535s0.688-1.535,1.533-1.535
			c0.845,0,1.533,0.689,1.533,1.535S-169.391-448.469-170.236-448.469z M-170.236-451.019c-0.559,0-1.013,0.455-1.013,1.015
			s0.454,1.015,1.013,1.015c0.559,0,1.013-0.455,1.013-1.015S-169.677-451.019-170.236-451.019z"/>
	</g>
	<g>
		<ellipse id="Oval-2_21_" fill="#D8D9D8" cx="-192.419" cy="-437.236" rx="1.275" ry="1.273"/>
		<path fill="#9B9B9B" d="M-192.419-435.703c-0.846,0-1.535-0.688-1.535-1.533c0-0.845,0.688-1.533,1.535-1.533
			s1.535,0.688,1.535,1.533C-190.885-436.39-191.573-435.703-192.419-435.703z M-192.419-438.249c-0.56,0-1.015,0.454-1.015,1.013
			s0.455,1.013,1.015,1.013c0.56,0,1.015-0.455,1.015-1.013S-191.86-438.249-192.419-438.249z"/>
	</g>
	<g>
		<ellipse id="Oval-2_22_" fill="#D8D9D8" cx="-179.144" cy="-440.878" rx="1.275" ry="1.273"/>
		<path fill="#9B9B9B" d="M-179.144-439.345c-0.846,0-1.535-0.688-1.535-1.533c0-0.845,0.689-1.533,1.535-1.533
			s1.534,0.688,1.534,1.533C-177.609-440.033-178.298-439.345-179.144-439.345z M-179.144-441.891c-0.56,0-1.015,0.455-1.015,1.013
			c0,0.559,0.455,1.013,1.015,1.013s1.015-0.454,1.015-1.013C-178.129-441.437-178.584-441.891-179.144-441.891z"/>
	</g>
	<g>
		<ellipse id="Oval-2_23_" fill="#D8D9D8" cx="-205.694" cy="-440.878" rx="1.275" ry="1.273"/>
		<path fill="#9B9B9B" d="M-205.694-439.345c-0.846,0-1.535-0.688-1.535-1.533c0-0.845,0.688-1.533,1.535-1.533
			c0.846,0,1.535,0.688,1.535,1.533C-204.16-440.033-204.848-439.345-205.694-439.345z M-205.694-441.891
			c-0.56,0-1.015,0.455-1.015,1.013c0,0.559,0.455,1.013,1.015,1.013c0.56,0,1.015-0.454,1.015-1.013
			C-204.679-441.437-205.135-441.891-205.694-441.891z"/>
	</g>
</g>
<polygon id="Star-2" fill="#102F51" points="306.442,43.604 296.918,50.224 300.271,39.121 291.032,32.108 302.628,31.866 
	306.442,20.912 310.256,31.866 321.852,32.108 312.613,39.121 315.966,50.224 "/>
<g enable-background="new    ">
	<path fill="#010101" d="M260.756,83.955h2.151c0.585,0,1.111,0.074,1.578,0.222c0.468,0.148,0.869,0.376,1.204,0.684
		c0.335,0.308,0.592,0.7,0.772,1.175c0.179,0.475,0.269,1.04,0.269,1.695c0,0.655-0.09,1.224-0.269,1.707
		c-0.179,0.483-0.433,0.883-0.76,1.199c-0.327,0.316-0.719,0.551-1.175,0.707c-0.456,0.156-0.964,0.234-1.526,0.234h-2.245V83.955z
		 M262.802,90.187c0.327,0,0.624-0.043,0.889-0.128c0.265-0.086,0.491-0.224,0.678-0.415c0.187-0.191,0.333-0.442,0.438-0.754
		c0.105-0.312,0.158-0.697,0.158-1.157c0-0.452-0.053-0.832-0.158-1.14c-0.105-0.308-0.251-0.553-0.438-0.737
		c-0.187-0.183-0.413-0.314-0.678-0.392c-0.265-0.078-0.561-0.117-0.889-0.117h-0.327v4.84H262.802z"/>
	<path fill="#010101" d="M271.64,89.766h-2.327l-0.468,1.812h-1.754l2.385-7.623h2.069l2.385,7.623h-1.824L271.64,89.766z
		 M271.289,88.421l-0.175-0.701c-0.109-0.382-0.214-0.787-0.316-1.216c-0.101-0.429-0.203-0.842-0.304-1.239h-0.047
		c-0.094,0.405-0.189,0.82-0.286,1.245c-0.098,0.425-0.201,0.828-0.31,1.21l-0.187,0.701H271.289z"/>
	<path fill="#010101" d="M275.779,85.405h-2.093v-1.45h5.916v1.45h-2.093v6.173h-1.73V85.405z"/>
	<path fill="#010101" d="M283.904,89.766h-2.327l-0.468,1.812h-1.754l2.385-7.623h2.069l2.385,7.623h-1.824L283.904,89.766z
		 M283.553,88.421l-0.175-0.701c-0.109-0.382-0.214-0.787-0.316-1.216c-0.101-0.429-0.203-0.842-0.304-1.239h-0.047
		c-0.093,0.405-0.189,0.82-0.286,1.245c-0.098,0.425-0.201,0.828-0.31,1.21l-0.187,0.701H283.553z"/>
	<path fill="#010101" d="M289.457,83.955h4.805v1.45h-3.086v1.765h2.642v1.45h-2.642v2.958h-1.719V83.955z"/>
	<path fill="#010101" d="M295.583,83.955h4.77v1.45h-3.051v1.531h2.595v1.438h-2.595v1.754h3.168v1.45h-4.887V83.955z"/>
	<path fill="#010101" d="M301.99,83.955h2.151c0.585,0,1.111,0.074,1.578,0.222c0.468,0.148,0.869,0.376,1.204,0.684
		c0.335,0.308,0.592,0.7,0.772,1.175c0.179,0.475,0.269,1.04,0.269,1.695c0,0.655-0.09,1.224-0.269,1.707
		c-0.179,0.483-0.433,0.883-0.76,1.199c-0.327,0.316-0.719,0.551-1.175,0.707c-0.456,0.156-0.964,0.234-1.526,0.234h-2.245V83.955z
		 M304.036,90.187c0.327,0,0.624-0.043,0.888-0.128c0.265-0.086,0.491-0.224,0.678-0.415c0.187-0.191,0.333-0.442,0.438-0.754
		c0.105-0.312,0.158-0.697,0.158-1.157c0-0.452-0.053-0.832-0.158-1.14c-0.105-0.308-0.251-0.553-0.438-0.737
		c-0.187-0.183-0.413-0.314-0.678-0.392c-0.265-0.078-0.561-0.117-0.888-0.117h-0.327v4.84H304.036z"/>
	<path fill="#010101" d="M309.414,83.955h4.77v1.45h-3.051v1.531h2.595v1.438h-2.595v1.754h3.168v1.45h-4.887V83.955z"/>
	<path fill="#010101" d="M319.947,91.578l-1.461-2.747h-0.947v2.747h-1.719v-7.623h2.747c0.405,0,0.785,0.039,1.14,0.117
		c0.354,0.078,0.664,0.209,0.929,0.391c0.265,0.183,0.475,0.427,0.631,0.731c0.156,0.304,0.234,0.682,0.234,1.134
		c0,0.561-0.123,1.023-0.368,1.386c-0.245,0.362-0.575,0.633-0.988,0.812l1.73,3.051H319.947z M317.539,87.463h0.888
		c0.452,0,0.797-0.095,1.035-0.286c0.238-0.191,0.356-0.473,0.356-0.848c0-0.374-0.119-0.635-0.356-0.783
		c-0.238-0.148-0.583-0.222-1.035-0.222h-0.888V87.463z"/>
	<path fill="#010101" d="M326.482,89.766h-2.327l-0.468,1.812h-1.754l2.385-7.623h2.069l2.385,7.623h-1.824L326.482,89.766z
		 M326.132,88.421l-0.176-0.701c-0.109-0.382-0.214-0.787-0.316-1.216c-0.101-0.429-0.203-0.842-0.304-1.239h-0.047
		c-0.093,0.405-0.189,0.82-0.286,1.245c-0.098,0.425-0.201,0.828-0.31,1.21l-0.187,0.701H326.132z"/>
	<path fill="#010101" d="M330.621,85.405h-2.093v-1.45h5.916v1.45h-2.093v6.173h-1.73V85.405z"/>
	<path fill="#010101" d="M335.637,83.955h1.719v7.623h-1.719V83.955z"/>
	<path fill="#010101" d="M342.254,91.718c-0.514,0-0.984-0.092-1.409-0.275c-0.425-0.183-0.789-0.446-1.093-0.789
		c-0.304-0.343-0.54-0.76-0.707-1.251c-0.168-0.491-0.252-1.048-0.252-1.672c0-0.624,0.084-1.179,0.252-1.666
		c0.167-0.487,0.403-0.896,0.707-1.227c0.304-0.331,0.668-0.585,1.093-0.76c0.425-0.176,0.894-0.263,1.409-0.263
		c0.515,0,0.984,0.088,1.409,0.263c0.425,0.175,0.789,0.431,1.093,0.766c0.304,0.335,0.54,0.746,0.707,1.233
		c0.168,0.487,0.251,1.039,0.251,1.654c0,0.624-0.084,1.181-0.251,1.672c-0.168,0.491-0.403,0.908-0.707,1.251
		c-0.304,0.343-0.668,0.606-1.093,0.789C343.237,91.627,342.768,91.718,342.254,91.718z M342.254,90.234
		c0.522,0,0.935-0.224,1.239-0.672c0.304-0.448,0.456-1.058,0.456-1.83c0-0.764-0.152-1.36-0.456-1.789
		c-0.304-0.429-0.717-0.643-1.239-0.643s-0.935,0.214-1.239,0.643c-0.304,0.429-0.456,1.025-0.456,1.789
		c0,0.772,0.152,1.381,0.456,1.83C341.318,90.01,341.731,90.234,342.254,90.234z"/>
	<path fill="#010101" d="M347.152,83.955h1.765l1.988,3.788l0.748,1.683h0.047c-0.039-0.405-0.084-0.857-0.134-1.356
		c-0.051-0.499-0.076-0.974-0.076-1.426v-2.689h1.637v7.623h-1.765l-1.988-3.8l-0.748-1.66h-0.047
		c0.039,0.421,0.084,0.873,0.134,1.356c0.051,0.483,0.076,0.951,0.076,1.403v2.701h-1.637V83.955z"/>
</g>
<g enable-background="new    ">
	<path fill="#010101" d="M261.861,74.12h-2.212v-0.782h5.362v0.782h-2.212v6.547h-0.938V74.12z"/>
	<path fill="#010101" d="M266.329,73.338h0.927v3.072h3.407v-3.072h0.938v7.328h-0.938v-3.452h-3.407v3.452h-0.927V73.338z"/>
	<path fill="#010101" d="M273.613,73.338h4.223v0.782h-3.296v2.301h2.782v0.793h-2.782v2.659h3.407v0.793h-4.335V73.338z"/>
	<path fill="#010101" d="M281.723,73.338h0.927v4.323c0,0.44,0.045,0.808,0.134,1.106c0.089,0.298,0.21,0.536,0.363,0.715
		c0.152,0.179,0.333,0.307,0.542,0.385c0.208,0.078,0.432,0.117,0.67,0.117c0.246,0,0.473-0.039,0.681-0.117
		c0.208-0.078,0.391-0.207,0.547-0.385c0.156-0.179,0.279-0.417,0.369-0.715c0.089-0.298,0.134-0.666,0.134-1.106v-4.323h0.894
		v4.301c0,0.589-0.067,1.084-0.201,1.486c-0.134,0.402-0.318,0.728-0.553,0.977c-0.235,0.25-0.512,0.429-0.832,0.536
		c-0.32,0.108-0.667,0.162-1.039,0.162c-0.373,0-0.721-0.054-1.045-0.162c-0.324-0.108-0.603-0.287-0.838-0.536
		c-0.235-0.249-0.419-0.575-0.553-0.977c-0.134-0.402-0.201-0.897-0.201-1.486V73.338z"/>
	<path fill="#010101" d="M288.962,73.338h0.961l2.648,4.603l0.793,1.519h0.045c-0.022-0.372-0.047-0.758-0.073-1.156
		c-0.026-0.398-0.039-0.791-0.039-1.178v-3.787h0.883v7.328h-0.961l-2.659-4.614l-0.793-1.508h-0.045
		c0.03,0.373,0.058,0.75,0.084,1.134c0.026,0.384,0.039,0.769,0.039,1.156v3.832h-0.883V73.338z"/>
	<path fill="#010101" d="M296.19,73.338h0.927v7.328h-0.927V73.338z"/>
	<path fill="#010101" d="M300.647,74.12h-2.212v-0.782h5.362v0.782h-2.212v6.547h-0.938V74.12z"/>
	<path fill="#010101" d="M305.116,73.338h4.223v0.782h-3.295v2.301h2.782v0.793h-2.782v2.659h3.407v0.793h-4.335V73.338z"/>
	<path fill="#010101" d="M311.003,73.338h1.832c1.132,0,1.992,0.313,2.581,0.938c0.588,0.625,0.882,1.523,0.882,2.692
		c0,0.581-0.075,1.101-0.223,1.559c-0.149,0.458-0.369,0.845-0.659,1.162c-0.291,0.317-0.648,0.559-1.073,0.726
		c-0.424,0.168-0.912,0.251-1.463,0.251h-1.877V73.338z M312.768,79.907c0.857,0,1.499-0.257,1.927-0.771
		c0.428-0.514,0.642-1.236,0.642-2.167c0-0.931-0.214-1.642-0.642-2.134c-0.428-0.491-1.071-0.737-1.927-0.737h-0.838v5.809H312.768
		z"/>
	<path fill="#010101" d="M320.152,79.069c0.261,0.276,0.568,0.497,0.922,0.665c0.354,0.168,0.721,0.251,1.1,0.251
		c0.484,0,0.86-0.11,1.129-0.33c0.268-0.219,0.402-0.508,0.402-0.866c0-0.186-0.031-0.345-0.095-0.475
		c-0.063-0.13-0.149-0.242-0.257-0.335c-0.108-0.093-0.236-0.177-0.386-0.251c-0.149-0.075-0.309-0.153-0.48-0.235l-1.05-0.458
		c-0.172-0.074-0.346-0.164-0.525-0.268c-0.179-0.104-0.339-0.231-0.48-0.38c-0.141-0.149-0.257-0.326-0.346-0.531
		c-0.089-0.205-0.134-0.441-0.134-0.709c0-0.275,0.058-0.532,0.173-0.771c0.115-0.238,0.276-0.445,0.481-0.62
		c0.205-0.175,0.447-0.311,0.726-0.408c0.279-0.097,0.587-0.145,0.921-0.145c0.439,0,0.845,0.084,1.218,0.251
		c0.372,0.168,0.689,0.385,0.949,0.654l-0.503,0.603c-0.224-0.216-0.471-0.385-0.743-0.508c-0.272-0.123-0.579-0.184-0.922-0.184
		c-0.41,0-0.739,0.095-0.988,0.285c-0.25,0.19-0.374,0.452-0.374,0.788c0,0.179,0.036,0.33,0.106,0.452
		c0.071,0.123,0.166,0.231,0.285,0.324c0.119,0.093,0.249,0.175,0.391,0.246c0.141,0.071,0.286,0.136,0.436,0.196l1.039,0.447
		c0.208,0.089,0.406,0.192,0.592,0.307c0.186,0.115,0.347,0.25,0.481,0.402c0.134,0.153,0.24,0.331,0.318,0.536
		c0.078,0.205,0.117,0.441,0.117,0.709c0,0.29-0.058,0.562-0.173,0.816c-0.115,0.253-0.281,0.475-0.497,0.665
		c-0.216,0.19-0.477,0.339-0.782,0.447c-0.305,0.108-0.652,0.162-1.039,0.162c-0.514,0-0.99-0.097-1.43-0.29
		c-0.439-0.194-0.819-0.458-1.139-0.793L320.152,79.069z"/>
	<path fill="#010101" d="M327.391,74.12h-2.212v-0.782h5.362v0.782h-2.212v6.547h-0.938V74.12z"/>
	<path fill="#010101" d="M334.764,78.432h-2.67l-0.704,2.234h-0.95l2.48-7.328h1.05l2.48,7.328h-0.995L334.764,78.432z
		 M334.53,77.683l-0.346-1.117c-0.134-0.409-0.261-0.817-0.38-1.223c-0.119-0.406-0.238-0.821-0.358-1.246h-0.045
		c-0.112,0.424-0.227,0.84-0.346,1.246c-0.119,0.406-0.246,0.814-0.38,1.223l-0.346,1.117H334.53z"/>
	<path fill="#010101" d="M338.563,74.12h-2.212v-0.782h5.362v0.782h-2.212v6.547h-0.938V74.12z"/>
	<path fill="#010101" d="M343.031,73.338h4.223v0.782h-3.295v2.301h2.782v0.793h-2.782v2.659h3.407v0.793h-4.334V73.338z"/>
	<path fill="#010101" d="M348.941,79.069c0.261,0.276,0.568,0.497,0.922,0.665c0.353,0.168,0.721,0.251,1.1,0.251
		c0.484,0,0.86-0.11,1.128-0.33c0.268-0.219,0.402-0.508,0.402-0.866c0-0.186-0.032-0.345-0.095-0.475
		c-0.063-0.13-0.149-0.242-0.257-0.335c-0.108-0.093-0.236-0.177-0.385-0.251c-0.149-0.075-0.309-0.153-0.48-0.235l-1.05-0.458
		c-0.172-0.074-0.346-0.164-0.525-0.268c-0.179-0.104-0.339-0.231-0.48-0.38c-0.142-0.149-0.257-0.326-0.346-0.531
		c-0.09-0.205-0.134-0.441-0.134-0.709c0-0.275,0.058-0.532,0.173-0.771c0.115-0.238,0.276-0.445,0.48-0.62
		c0.205-0.175,0.447-0.311,0.726-0.408c0.279-0.097,0.587-0.145,0.922-0.145c0.439,0,0.845,0.084,1.218,0.251
		c0.372,0.168,0.689,0.385,0.95,0.654l-0.503,0.603c-0.224-0.216-0.471-0.385-0.743-0.508c-0.272-0.123-0.579-0.184-0.922-0.184
		c-0.41,0-0.739,0.095-0.989,0.285c-0.25,0.19-0.374,0.452-0.374,0.788c0,0.179,0.035,0.33,0.106,0.452
		c0.071,0.123,0.166,0.231,0.285,0.324c0.119,0.093,0.249,0.175,0.391,0.246s0.287,0.136,0.436,0.196l1.039,0.447
		c0.208,0.089,0.406,0.192,0.592,0.307c0.186,0.115,0.346,0.25,0.481,0.402c0.134,0.153,0.24,0.331,0.318,0.536
		c0.078,0.205,0.117,0.441,0.117,0.709c0,0.29-0.058,0.562-0.173,0.816c-0.115,0.253-0.281,0.475-0.497,0.665
		c-0.216,0.19-0.477,0.339-0.782,0.447c-0.305,0.108-0.652,0.162-1.039,0.162c-0.514,0-0.991-0.097-1.43-0.29
		c-0.44-0.194-0.819-0.458-1.14-0.793L348.941,79.069z"/>
</g>
<polygon opacity="0.06" fill="none" points="493.993,0.267 322.411,34.487 322.264,33.751 322.632,33.678 490.159,0.267 
	419.121,0.267 321.709,32.443 321.474,31.731 416.73,0.267 382.425,0.267 321.05,30.573 320.718,29.9 321.054,29.734 380.73,0.267 
	363.237,0.267 319.881,28.724 319.469,28.097 319.782,27.892 361.87,0.267 349.353,0.267 318.729,27.152 318.233,26.588 
	318.516,26.341 348.216,0.267 339.757,0.267 317.159,25.611 316.6,25.112 316.849,24.833 338.752,0.267 331.715,0.267 
	315.585,24.435 314.961,24.018 315.17,23.707 330.814,0.267 325.302,0.267 313.708,23.298 313.038,22.961 313.207,22.626 
	324.463,0.267 319.432,0.267 311.854,22.63 311.144,22.389 311.264,22.034 318.64,0.267 314.286,0.267 309.785,21.961 
	309.051,21.809 313.52,0.267 309.194,0.267 307.79,21.859 307.042,21.811 308.443,0.267 304.431,0.267 305.658,21.692 
	304.909,21.735 303.679,0.267 299.285,0.267 303.649,22.153 302.914,22.3 302.841,21.932 298.52,0.267 294.245,0.267 
	301.584,22.488 300.873,22.724 300.755,22.368 293.455,0.267 289.34,0.267 300.607,23.085 299.934,23.417 299.768,23.081 
	288.503,0.267 283.242,0.267 298.677,23.784 298.05,24.195 297.845,23.881 282.346,0.267 273.854,0.267 296.313,25.851 
	295.75,26.346 295.502,26.064 272.856,0.267 264.712,0.267 294.753,27.053 294.254,27.612 263.585,0.267 252.329,0.267 
	294.137,28.172 293.72,28.795 293.409,28.587 250.978,0.267 234.566,0.267 292.875,29.621 292.539,30.291 292.204,30.122 
	232.898,0.267 199.086,0.267 292.104,31.79 291.863,32.5 291.508,32.38 196.75,0.267 131.311,0.267 291.299,33.46 291.147,34.195 
	127.619,0.267 -74.414,0.267 -74.414,100.197 114.198,100.197 291.324,41.69 291.56,42.402 291.204,42.52 116.589,100.197 
	178.352,100.197 292.248,43.958 292.58,44.631 292.243,44.797 180.046,100.197 209.62,100.197 292.924,45.52 293.335,46.147 
	293.022,46.353 210.986,100.197 234.384,100.197 294.372,47.535 294.867,48.099 294.585,48.346 235.521,100.197 249.653,100.197 
	295.469,48.812 296.028,49.311 250.657,100.197 264.116,100.197 297.334,50.428 297.958,50.844 297.75,51.156 265.017,100.197 
	274.157,100.197 298.761,51.322 299.431,51.659 299.263,51.994 274.997,100.197 284.775,100.197 300.953,52.46 301.663,52.701 
	301.542,53.057 285.567,100.197 292.788,100.197 302.601,52.898 303.335,53.051 293.554,100.197 301.943,100.197 304.98,53.495 
	305.729,53.543 302.695,100.197 309.404,100.197 306.725,53.434 307.474,53.391 310.155,100.197 318.449,100.197 309.124,53.438 
	309.859,53.292 309.934,53.66 319.215,100.197 326.462,100.197 310.831,52.873 311.543,52.638 311.661,52.994 327.253,100.197 
	337.846,100.197 313.992,51.887 314.664,51.555 314.83,51.891 338.682,100.197 347.934,100.197 315.473,50.74 316.1,50.329 
	316.306,50.642 348.831,100.197 360.581,100.197 316.697,50.208 317.261,49.712 317.509,49.994 361.58,100.197 375.66,100.197 
	317.953,48.743 318.452,48.184 318.732,48.433 376.787,100.197 400.697,100.197 320.13,46.422 320.547,45.798 320.858,46.006 
	402.048,100.197 431.403,100.197 320.899,44.568 321.237,43.898 321.572,44.066 433.072,100.197 491.62,100.197 321.935,42.692 
	322.176,41.981 322.53,42.102 493.957,100.197 689.375,100.197 689.375,0.267 "/>
<g>
</g>
<g>
</g>
<g>
</g>
<g>
</g>
<g>
</g>
<g>
</g>
</svg>
